<svg width="307.21995239257814px" height="120.8px" xmlns="http://www.w3.org/2000/svg" viewBox="96.39002380371093 14.600000000000001 307.21995239257814 120.8" style="background: rgba(0, 0, 0, 0);" preserveAspectRatio="xMidYMid"><defs><linearGradient id="editing-sticker-gradient" x1="0.5" y1="0.2" x2="0.5" y2="0.8"><stop offset="0" stop-color="#fd9"></stop><stop offset="1" stop-color="#9df"></stop></linearGradient><filter id="editing-sticker" x="-100%" y="-100%" width="300%" height="300%"><feMorphology operator="erode" radius="1" in="SourceAlpha" result="alpha-erode"></feMorphology><feConvolveMatrix order="3,3" divisor="1" kernelMatrix="0 1 0 1 1 1 0 1 0" in="alpha-erode" result="alpha-round"></feConvolveMatrix><feMorphology operator="dilate" radius="3.5" in="alpha-round" result="dilate-shadow"></feMorphology><feGaussianBlur in="dilate-shadow" stdDeviation="1.5" result="shadow"></feGaussianBlur><feFlood flood-color="#fff" result="flood-sticker"></feFlood><feComposite operator="in" in="flood-sticker" in2="alpha-round" result="comp-sticker"></feComposite><feMorphology operator="dilate" radius="3" in="comp-sticker" result="morph-sticker"></feMorphology><feConvolveMatrix order="3,3" divisor="1" kernelMatrix="0 1 0 1 1 1 0 1 0" in="morph-sticker" result="sticker"></feConvolveMatrix><feMerge><feMergeNode in="shadow"></feMergeNode><feMergeNode in="sticker"></feMergeNode><feMergeNode in="SourceGraphic"></feMergeNode></feMerge></filter></defs><g filter="url(#editing-sticker)"><g transform="translate(144.78502106666565, 97.30500030517578)"><path d="M14.14 0L0.51 0L7.81-38.91L8.51-42.24L22.21-42.24L14.14 0ZM40.13-3.78L40.13-3.78L40.13-3.78Q38.40 1.28 31.74 1.28L31.74 1.28L31.74 1.28Q26.82 1.28 23.42-4.61L23.42-4.61L23.42-4.61Q19.97-10.50 19.33-20.10L19.33-20.10L19.33-20.10Q26.37-32.96 31.23-38.27L31.23-38.27L31.23-38.27Q35.90-43.33 40.77-43.33L40.77-43.33L40.77-43.33Q43.39-43.33 45.28-41.92L45.28-41.92L45.28-41.92Q47.17-40.51 47.62-38.27L47.62-38.27L47.62-38.27Q45.44-37.38 44.42-36.67L44.42-36.67L44.42-36.67Q41.86-34.75 38.40-30.46L38.40-30.46L32.58-23.49L32.58-23.49Q31.17-21.82 30.59-21.06L30.59-21.06L30.59-21.06Q31.55-15.68 34.43-10.37L34.43-10.37L34.43-10.37Q37.18-5.31 40.13-3.78ZM57.73 1.28L57.73 1.28L57.73 1.28Q43.65 1.28 43.65-11.97L43.65-11.97L43.65-11.97Q43.65-21.38 48.83-27.46L48.83-27.46L48.83-27.46Q54.34-33.92 63.87-33.92L63.87-33.92L63.87-33.92Q70.78-33.92 74.30-30.72L74.30-30.72L74.30-30.72Q77.82-27.52 77.82-20.80L77.82-20.80L77.82-20.80Q77.82-10.56 72.32-4.61L72.32-4.61L72.32-4.61Q66.94 1.28 57.73 1.28ZM59.39-26.56L59.39-26.56L59.39-26.56Q58.62-24.83 58.02-22.24L58.02-22.24L58.02-22.24Q57.41-19.65 56.64-15.55L56.64-15.55L56.64-15.55Q55.87-11.46 55.87-6.40L55.87-6.40L55.87-6.40Q55.87-4.74 56.42-3.65L56.42-3.65L56.42-3.65Q56.96-2.56 58.43-2.56L58.43-2.56L58.43-2.56Q59.90-2.56 60.83-3.26L60.83-3.26L60.83-3.26Q61.76-3.97 62.46-5.63L62.46-5.63L62.46-5.63Q63.74-8.58 64.77-14.05L64.77-14.05L64.77-14.05Q65.79-19.52 65.89-21.89L65.89-21.89L65.89-21.89Q65.98-24.26 65.98-26.02L65.98-26.02L65.98-26.02Q65.98-27.78 65.47-28.93L65.47-28.93L65.47-28.93Q64.96-30.08 63.52-30.08L63.52-30.08L63.52-30.08Q62.08-30.08 61.12-29.18L61.12-29.18L61.12-29.18Q60.16-28.29 59.39-26.56ZM127.68 1.28L127.68 1.28L127.68 1.28Q119.94 1.28 119.94-4.74L119.94-4.74L119.94-4.74Q119.94-7.36 121.06-12.45L121.06-12.45L121.06-12.45Q122.18-17.54 122.56-19.58L122.56-19.58L122.56-19.58Q123.46-24.26 123.46-25.73L123.46-25.73L123.46-25.73Q123.46-28.99 121.02-28.99L121.02-28.99L121.02-28.99Q119.42-28.99 117.89-26.78L117.89-26.78L117.89-26.78Q116.35-24.58 115.65-20.16L115.65-20.16L111.68 0L99.20 1.28L102.66-16.13L102.66-16.13Q103.23-19.01 103.74-22.27L103.74-22.27L103.74-22.27Q104.26-25.54 104.26-26.05L104.26-26.05L104.26-26.05Q104.26-28.99 102.08-28.99L102.08-28.99L102.08-28.99Q100.61-28.99 99.01-26.82L99.01-26.82L99.01-26.82Q97.41-24.64 96.51-20.16L96.51-20.16L92.61 0L80 1.28L86.72-32.64L97.15-33.92L96.06-27.46L96.06-27.46Q97.73-30.91 100.80-32.42L100.80-32.42L100.80-32.42Q103.87-33.92 108.67-33.92L108.67-33.92L108.67-33.92Q111.42-33.92 113.22-32.58L113.22-32.58L113.22-32.58Q115.01-31.23 115.58-29.06L115.58-29.06L115.58-29.06Q116.67-31.30 119.46-32.61L119.46-32.61L119.46-32.61Q122.24-33.92 125.66-33.92L125.66-33.92L125.66-33.92Q129.09-33.92 130.78-33.18L130.78-33.18L130.78-33.18Q132.48-32.45 133.50-31.23L133.50-31.23L133.50-31.23Q135.23-28.99 135.23-24.90L135.23-24.90L135.23-24.90Q135.23-20.86 133.50-12.48L133.50-12.48L133.50-12.48Q132.61-8.38 132.61-6.88L132.61-6.88L132.61-6.88Q132.61-5.38 133.47-4.48L133.47-4.48L133.47-4.48Q134.34-3.58 135.62-3.46L135.62-3.46L135.62-3.46Q134.98-1.28 132.77 0L132.77 0L132.77 0Q130.56 1.28 127.68 1.28ZM161.09-2.69L161.09-2.69L161.09-2.69Q158.02 1.28 150.40 1.28L150.40 1.28L150.40 1.28Q146.43 1.28 143.55-1.12L143.55-1.12L143.55-1.12Q140.67-3.52 140.67-6.98L140.67-6.98L140.67-6.98Q140.67-8.90 140.86-9.86L140.86-9.86L145.15-32.64L158.14-33.92L153.47-9.22L153.47-9.22Q153.22-7.81 153.22-6.98L153.22-6.98L153.22-6.98Q153.22-3.26 155.46-3.26L155.46-3.26L155.46-3.26Q157.95-3.26 159.74-6.66L159.74-6.66L159.74-6.66Q160.32-7.74 160.58-9.15L160.58-9.15L165.12-32.64L177.73-33.92L172.99-8.96L172.99-8.96Q172.80-8 172.80-6.98L172.80-6.98L172.80-6.98Q172.80-5.95 173.38-4.83L173.38-4.83L173.38-4.83Q173.95-3.71 175.81-3.46L175.81-3.46L175.81-3.46Q175.42-1.92 174.08-0.90L174.08-0.90L174.08-0.90Q171.26 1.28 168.22 1.28L168.22 1.28L168.22 1.28Q165.18 1.28 163.39 0.19L163.39 0.19L163.39 0.19Q161.60-0.90 161.09-2.69ZM200.32-22.46L200.32-22.46L200.32-22.46Q201.22-24.83 201.22-26.88L201.22-26.88L201.22-26.88Q201.22-30.66 198.14-30.66L198.14-30.66L198.14-30.66Q196.54-30.66 195.23-29.22L195.23-29.22L195.23-29.22Q193.92-27.78 193.92-25.98L193.92-25.98L193.92-25.98Q193.92-24.70 194.94-23.68L194.94-23.68L194.94-23.68Q196.42-22.27 200.19-19.97L200.19-19.97L200.19-19.97Q203.97-17.66 205.41-15.78L205.41-15.78L205.41-15.78Q206.85-13.89 206.85-11.30L206.85-11.30L206.85-11.30Q206.85-8.70 205.60-6.34L205.60-6.34L205.60-6.34Q204.35-3.97 202.11-2.30L202.11-2.30L202.11-2.30Q197.31 1.28 189.63 1.28L189.63 1.28L189.63 1.28Q185.47 1.28 182.27-0.90L182.27-0.90L182.27-0.90Q179.07-3.01 179.07-5.50L179.07-5.50L179.07-5.50Q179.07-8 180.90-9.47L180.90-9.47L180.90-9.47Q182.72-10.94 185.41-10.94L185.41-10.94L185.41-10.94Q188.10-10.94 189.76-9.92L189.76-9.92L189.76-9.92Q188.93-7.81 188.93-6.40L188.93-6.40L188.93-6.40Q188.93-2.18 192.51-2.18L192.51-2.18L192.51-2.18Q194.05-2.18 195.07-3.14L195.07-3.14L195.07-3.14Q196.10-4.10 196.10-5.76L196.10-5.76L196.10-5.76Q196.10-9.02 190.59-12.48L190.59-12.48L190.59-12.48Q186.11-15.42 185.09-16.58L185.09-16.58L185.09-16.58Q183.36-18.62 183.36-21.18L183.36-21.18L183.36-21.18Q183.36-23.74 184.58-26.18L184.58-26.18L184.58-26.18Q185.79-28.61 188.03-30.34L188.03-30.34L188.03-30.34Q192.70-33.92 200.83-33.92L200.83-33.92L200.83-33.92Q204.99-33.92 207.46-32.26L207.46-32.26L207.46-32.26Q209.92-30.59 209.92-27.78L209.92-27.78L209.92-27.78Q209.92-24.96 208.22-23.36L208.22-23.36L208.22-23.36Q206.53-21.76 203.46-21.76L203.46-21.76L203.46-21.76Q201.34-21.76 200.32-22.46Z" fill="url(#editing-sticker-gradient)" stroke="#000" stroke-width="2.5"></path></g></g><style>text {
  font-size: 64px;
  font-family: Arial Black;
  dominant-baseline: central;
  text-anchor: middle;
}</style></svg>